<svg width="1290" height="2796" viewBox="0 0 1290 2796" fill="none" xmlns="http://www.w3.org/2000/svg">
  <rect width="1290" height="2796" fill="#FAFAF7"/>
  <circle cx="1160" cy="170" r="322.5" fill="#E7ECE7" opacity="0.42"/>

  <g transform="translate(96.0 135.0) scale(0.7500)">
    <rect x="12" y="12" width="104" height="104" rx="28" fill="#0F766E"/>
    <path d="M39 34C39 30.686 41.686 28 45 28H83C86.314 28 89 30.686 89 34V94C89 97.314 86.314 100 83 100H45C41.686 100 39 97.314 39 94V34Z" fill="#FAFAF7"/>
    <path d="M51 43H77" stroke="#0F766E" stroke-width="6" stroke-linecap="round"/>
    <path d="M51 58H70" stroke="#0F766E" stroke-width="6" stroke-linecap="round"/>
    <path d="M51 73H77" stroke="#0F766E" stroke-width="6" stroke-linecap="round"/>
    <path d="M51 88H66" stroke="#C76F3D" stroke-width="6" stroke-linecap="round"/>
    <path d="M45 30L78 64L45 98" stroke="#0F766E" stroke-width="10" stroke-linecap="round" stroke-linejoin="round"/>
    <path d="M78 64L91 51" stroke="#C76F3D" stroke-width="10" stroke-linecap="round" stroke-linejoin="round"/>
  </g>
  <text x="220.0" y="200.0" fill="#172326" font-family="Arial, Helvetica, sans-serif" font-size="40" font-weight="800" text-anchor="start" letter-spacing="0">KidCost</text>
  <text x="645.0" y="360.0" fill="#172326" font-family="Arial, Helvetica, sans-serif" font-size="58" font-weight="800" text-anchor="middle" letter-spacing="0">Dodaj koszt w minute</text>
  <text x="645.0" y="425.0" fill="#5B676A" font-family="Arial, Helvetica, sans-serif" font-size="32" font-weight="500" text-anchor="middle" letter-spacing="0">Kwota, kategoria, data i zalacznik w jednym miejscu.</text>

  <rect x="180.0" y="832.2" width="930.0" height="1810.0" rx="72.0" fill="#172326" opacity="0.1"/>
  <rect x="192.0" y="844.2" width="906.0" height="1786.0" rx="64.0" fill="#FFFFFF"/>
  <rect x="228.0" y="860.2" width="834.0" height="34.0" rx="17.0" fill="#172326" opacity="0.08"/>
  <text x="222.0" y="944.2" fill="#172326" font-family="Arial, Helvetica, sans-serif" font-size="42" font-weight="700" text-anchor="start" letter-spacing="0">Dodaj</text>


  <rect x="222.0" y="992.2" width="846.0" height="96.0" rx="16.0" fill="#FFFFFF" stroke="#E7ECE7" stroke-width="3"/>
  <circle cx="256.0" cy="1040.2" r="16" fill="#0F766E" opacity="0.18"/>
  <text x="290.0" y="1026.2" fill="#5B676A" font-family="Arial, Helvetica, sans-serif" font-size="19" font-weight="600" text-anchor="start" letter-spacing="0">Kwota</text>
  <text x="290.0" y="1060.2" fill="#172326" font-family="Arial, Helvetica, sans-serif" font-size="26" font-weight="700" text-anchor="start" letter-spacing="0">120,00 zl</text>

  <rect x="222.0" y="1112.2" width="846.0" height="96.0" rx="16.0" fill="#FFFFFF" stroke="#E7ECE7" stroke-width="3"/>
  <circle cx="256.0" cy="1160.2" r="16" fill="#375E97" opacity="0.18"/>
  <text x="290.0" y="1146.2" fill="#5B676A" font-family="Arial, Helvetica, sans-serif" font-size="19" font-weight="600" text-anchor="start" letter-spacing="0">Data kosztu</text>
  <text x="290.0" y="1180.2" fill="#172326" font-family="Arial, Helvetica, sans-serif" font-size="26" font-weight="700" text-anchor="start" letter-spacing="0">2026-06-22</text>

  <rect x="222.0" y="1232.2" width="846.0" height="96.0" rx="16.0" fill="#FFFFFF" stroke="#E7ECE7" stroke-width="3"/>
  <circle cx="256.0" cy="1280.2" r="16" fill="#C76F3D" opacity="0.18"/>
  <text x="290.0" y="1266.2" fill="#5B676A" font-family="Arial, Helvetica, sans-serif" font-size="19" font-weight="600" text-anchor="start" letter-spacing="0">Dziecko</text>
  <text x="290.0" y="1300.2" fill="#172326" font-family="Arial, Helvetica, sans-serif" font-size="26" font-weight="700" text-anchor="start" letter-spacing="0">Dziecko</text>
  <text x="222.0" y="1357.2" fill="#5B676A" font-family="Arial, Helvetica, sans-serif" font-size="24" font-weight="600" text-anchor="start" letter-spacing="0">Kategoria</text>

  <rect x="222.0" y="1372.2" width="411.0" height="58.0" rx="29.0" fill="#FFFFFF" stroke="#E7ECE7" stroke-width="3"/>
  <text x="427.5" y="1410.2" fill="#172326" font-family="Arial, Helvetica, sans-serif" font-size="22" font-weight="700" text-anchor="middle" letter-spacing="0">Jedzenie</text>
  <rect x="657.0" y="1372.2" width="411.0" height="58.0" rx="29.0" fill="#FFFFFF" stroke="#E7ECE7" stroke-width="3"/>
  <text x="862.5" y="1410.2" fill="#172326" font-family="Arial, Helvetica, sans-serif" font-size="22" font-weight="700" text-anchor="middle" letter-spacing="0">Ubrania</text>
  <rect x="222.0" y="1450.2" width="411.0" height="58.0" rx="29.0" fill="#FFFFFF" stroke="#E7ECE7" stroke-width="3"/>
  <text x="427.5" y="1488.2" fill="#172326" font-family="Arial, Helvetica, sans-serif" font-size="22" font-weight="700" text-anchor="middle" letter-spacing="0">Szkola</text>
  <rect x="657.0" y="1450.2" width="411.0" height="58.0" rx="29.0" fill="#E5F5F2" stroke="#0F766E" stroke-width="3"/>
  <text x="862.5" y="1488.2" fill="#0F766E" font-family="Arial, Helvetica, sans-serif" font-size="22" font-weight="700" text-anchor="middle" letter-spacing="0">Lekarze</text>
  <rect x="222.0" y="1528.2" width="411.0" height="58.0" rx="29.0" fill="#FFFFFF" stroke="#E7ECE7" stroke-width="3"/>
  <text x="427.5" y="1566.2" fill="#172326" font-family="Arial, Helvetica, sans-serif" font-size="22" font-weight="700" text-anchor="middle" letter-spacing="0">Zajecia</text>
  <rect x="657.0" y="1528.2" width="411.0" height="58.0" rx="29.0" fill="#FFFFFF" stroke="#E7ECE7" stroke-width="3"/>
  <text x="862.5" y="1566.2" fill="#172326" font-family="Arial, Helvetica, sans-serif" font-size="22" font-weight="700" text-anchor="middle" letter-spacing="0">Transport</text>

  <rect x="222.0" y="1637.2" width="846.0" height="96.0" rx="16.0" fill="#FFFFFF" stroke="#E7ECE7" stroke-width="3"/>
  <circle cx="256.0" cy="1685.2" r="16" fill="#B42318" opacity="0.18"/>
  <text x="290.0" y="1671.2" fill="#5B676A" font-family="Arial, Helvetica, sans-serif" font-size="19" font-weight="600" text-anchor="start" letter-spacing="0">Opis</text>
  <text x="290.0" y="1705.2" fill="#172326" font-family="Arial, Helvetica, sans-serif" font-size="26" font-weight="700" text-anchor="start" letter-spacing="0">Wizyta kontrolna</text>
  <rect x="222.0" y="1772.2" width="846.0" height="82.0" rx="16.0" fill="#FFFFFF" stroke="#E7ECE7" stroke-width="3"/>
  <text x="250.0" y="1825.2" fill="#172326" font-family="Arial, Helvetica, sans-serif" font-size="25" font-weight="700" text-anchor="start" letter-spacing="0">Dodaj paragon lub PDF</text>
  <rect x="222.0" y="1882.2" width="846.0" height="88.0" rx="22.0" fill="#0F766E"/>
  <text x="645.0" y="1939.2" fill="#FFFFFF" font-family="Arial, Helvetica, sans-serif" font-size="27" font-weight="700" text-anchor="middle" letter-spacing="0">Zapisz koszt</text>
  <line x1="222.0" y1="2487.2" x2="1068.0" y2="2487.2" stroke="#E7ECE7" stroke-width="3"/>
  <g>
    <rect x="247.0" y="2513.2" width="34.0" height="8.0" rx="4.0" fill="#879194" opacity="0"/>
  <circle cx="264.0" cy="2538.2" r="13" fill="none" stroke="#879194" stroke-width="5"/>
<text x="264.0" y="2581.2" fill="#879194" font-family="Arial, Helvetica, sans-serif" font-size="20" font-weight="500" text-anchor="middle" letter-spacing="0">Start</text>
    <rect x="416.2" y="2513.2" width="34.0" height="8.0" rx="4.0" fill="#879194" opacity="0"/>
  <circle cx="433.2" cy="2538.2" r="13" fill="none" stroke="#879194" stroke-width="5"/>
<text x="433.2" y="2581.2" fill="#879194" font-family="Arial, Helvetica, sans-serif" font-size="20" font-weight="500" text-anchor="middle" letter-spacing="0">Koszty</text>
    <rect x="585.4" y="2513.2" width="34.0" height="8.0" rx="4.0" fill="#0F766E" opacity="0.22"/>
  <circle cx="602.4" cy="2538.2" r="13" fill="none" stroke="#0F766E" stroke-width="5"/>
<text x="602.4" y="2581.2" fill="#0F766E" font-family="Arial, Helvetica, sans-serif" font-size="20" font-weight="600" text-anchor="middle" letter-spacing="0">Dodaj</text>
    <rect x="754.6" y="2513.2" width="34.0" height="8.0" rx="4.0" fill="#879194" opacity="0"/>
  <circle cx="771.6" cy="2538.2" r="13" fill="none" stroke="#879194" stroke-width="5"/>
<text x="771.6" y="2581.2" fill="#879194" font-family="Arial, Helvetica, sans-serif" font-size="20" font-weight="500" text-anchor="middle" letter-spacing="0">Opieka</text>
    <rect x="923.8" y="2513.2" width="34.0" height="8.0" rx="4.0" fill="#879194" opacity="0"/>
  <circle cx="940.8" cy="2538.2" r="13" fill="none" stroke="#879194" stroke-width="5"/>
<text x="940.8" y="2581.2" fill="#879194" font-family="Arial, Helvetica, sans-serif" font-size="20" font-weight="500" text-anchor="middle" letter-spacing="0">Raporty</text>
  </g>
</svg>
