<svg width="1080" height="1920" viewBox="0 0 1080 1920" fill="none" xmlns="http://www.w3.org/2000/svg">
  <rect width="1080" height="1920" fill="#FAFAF7"/>
  <circle cx="950" cy="112" r="270.0" fill="#E7ECE7" opacity="0.42"/>

  <g transform="translate(70.0 77.0) scale(0.5469)">
    <rect x="12" y="12" width="104" height="104" rx="28" fill="#0F766E"/>
    <path d="M39 34C39 30.686 41.686 28 45 28H83C86.314 28 89 30.686 89 34V94C89 97.314 86.314 100 83 100H45C41.686 100 39 97.314 39 94V34Z" fill="#FAFAF7"/>
    <path d="M51 43H77" stroke="#0F766E" stroke-width="6" stroke-linecap="round"/>
    <path d="M51 58H70" stroke="#0F766E" stroke-width="6" stroke-linecap="round"/>
    <path d="M51 73H77" stroke="#0F766E" stroke-width="6" stroke-linecap="round"/>
    <path d="M51 88H66" stroke="#C76F3D" stroke-width="6" stroke-linecap="round"/>
    <path d="M45 30L78 64L45 98" stroke="#0F766E" stroke-width="10" stroke-linecap="round" stroke-linejoin="round"/>
    <path d="M78 64L91 51" stroke="#C76F3D" stroke-width="10" stroke-linecap="round" stroke-linejoin="round"/>
  </g>
  <text x="162.0" y="142.0" fill="#172326" font-family="Arial, Helvetica, sans-serif" font-size="31" font-weight="800" text-anchor="start" letter-spacing="0">KidCost</text>
  <text x="540.0" y="302.0" fill="#172326" font-family="Arial, Helvetica, sans-serif" font-size="42" font-weight="800" text-anchor="middle" letter-spacing="0">Paragony i historia w jednym miejscu</text>
  <text x="540.0" y="367.0" fill="#5B676A" font-family="Arial, Helvetica, sans-serif" font-size="24" font-weight="500" text-anchor="middle" letter-spacing="0">Lista kosztow pokazuje status, zalacznik i kontekst.</text>

  <rect x="160.0" y="460.0" width="760.0" height="1340.0" rx="72.0" fill="#172326" opacity="0.1"/>
  <rect x="172.0" y="472.0" width="736.0" height="1316.0" rx="64.0" fill="#FFFFFF"/>
  <rect x="208.0" y="488.0" width="664.0" height="34.0" rx="17.0" fill="#172326" opacity="0.08"/>
  <text x="202.0" y="572.0" fill="#172326" font-family="Arial, Helvetica, sans-serif" font-size="42" font-weight="700" text-anchor="start" letter-spacing="0">Koszty</text>

  <rect x="202.0" y="620.0" width="676.0" height="112.0" rx="18.0" fill="#FFFFFF" stroke="#E7ECE7" stroke-width="3"/>
  <text x="228.0" y="665.0" fill="#172326" font-family="Arial, Helvetica, sans-serif" font-size="26" font-weight="700" text-anchor="start" letter-spacing="0">Filtry</text>
  <text x="228.0" y="702.0" fill="#5B676A" font-family="Arial, Helvetica, sans-serif" font-size="22" font-weight="500" text-anchor="start" letter-spacing="0">Czerwiec 2026  /  Wszystkie statusy</text>

  <rect x="202.0" y="762.0" width="676.0" height="172.0" rx="18.0" fill="#FFFFFF" stroke="#E7ECE7" stroke-width="3"/>
  <circle cx="238.0" cy="810.0" r="22" fill="#B7791F" opacity="0.18"/>
  <text x="278.0" y="809.0" fill="#172326" font-family="Arial, Helvetica, sans-serif" font-size="25" font-weight="700" text-anchor="start" letter-spacing="0">Wizyta kontrolna</text>
  <text x="852.0" y="810.0" fill="#172326" font-family="Arial, Helvetica, sans-serif" font-size="25" font-weight="700" text-anchor="end" letter-spacing="0">120,00 zl</text>
  <text x="278.0" y="846.0" fill="#5B676A" font-family="Arial, Helvetica, sans-serif" font-size="19" font-weight="500" text-anchor="start" letter-spacing="0">Lekarze i leki - Dziecko - Rodzic A</text>
  <rect x="278.0" y="870.0" width="245.0" height="44.0" rx="22.0" fill="#B7791F" opacity="0.12"/>
  <text x="302.0" y="900.0" fill="#B7791F" font-family="Arial, Helvetica, sans-serif" font-size="19" font-weight="700" text-anchor="start" letter-spacing="0">Do akceptacji</text>

  <rect x="202.0" y="962.0" width="676.0" height="172.0" rx="18.0" fill="#FFFFFF" stroke="#E7ECE7" stroke-width="3"/>
  <circle cx="238.0" cy="1010.0" r="22" fill="#2F855A" opacity="0.18"/>
  <text x="278.0" y="1009.0" fill="#172326" font-family="Arial, Helvetica, sans-serif" font-size="25" font-weight="700" text-anchor="start" letter-spacing="0">Obiad szkolny</text>
  <text x="852.0" y="1010.0" fill="#172326" font-family="Arial, Helvetica, sans-serif" font-size="25" font-weight="700" text-anchor="end" letter-spacing="0">38,00 zl</text>
  <text x="278.0" y="1046.0" fill="#5B676A" font-family="Arial, Helvetica, sans-serif" font-size="19" font-weight="500" text-anchor="start" letter-spacing="0">Jedzenie - Dziecko - Rodzic B</text>
  <rect x="278.0" y="1070.0" width="245.0" height="44.0" rx="22.0" fill="#2F855A" opacity="0.12"/>
  <text x="302.0" y="1100.0" fill="#2F855A" font-family="Arial, Helvetica, sans-serif" font-size="19" font-weight="700" text-anchor="start" letter-spacing="0">Zaakceptowany</text>

  <rect x="202.0" y="1162.0" width="676.0" height="172.0" rx="18.0" fill="#FFFFFF" stroke="#E7ECE7" stroke-width="3"/>
  <circle cx="238.0" cy="1210.0" r="22" fill="#B42318" opacity="0.18"/>
  <text x="278.0" y="1209.0" fill="#172326" font-family="Arial, Helvetica, sans-serif" font-size="25" font-weight="700" text-anchor="start" letter-spacing="0">Buty sportowe</text>
  <text x="852.0" y="1210.0" fill="#172326" font-family="Arial, Helvetica, sans-serif" font-size="25" font-weight="700" text-anchor="end" letter-spacing="0">154,00 zl</text>
  <text x="278.0" y="1246.0" fill="#5B676A" font-family="Arial, Helvetica, sans-serif" font-size="19" font-weight="500" text-anchor="start" letter-spacing="0">Ubrania - Dziecko - Rodzic A</text>
  <rect x="278.0" y="1270.0" width="245.0" height="44.0" rx="22.0" fill="#B42318" opacity="0.12"/>
  <text x="302.0" y="1300.0" fill="#B42318" font-family="Arial, Helvetica, sans-serif" font-size="19" font-weight="700" text-anchor="start" letter-spacing="0">Wymaga wyjasnienia</text>

  <rect x="202.0" y="1362.0" width="676.0" height="172.0" rx="18.0" fill="#FFFFFF" stroke="#E7ECE7" stroke-width="3"/>
  <circle cx="238.0" cy="1410.0" r="22" fill="#0F766E" opacity="0.18"/>
  <text x="278.0" y="1409.0" fill="#172326" font-family="Arial, Helvetica, sans-serif" font-size="25" font-weight="700" text-anchor="start" letter-spacing="0">Basen</text>
  <text x="852.0" y="1410.0" fill="#172326" font-family="Arial, Helvetica, sans-serif" font-size="25" font-weight="700" text-anchor="end" letter-spacing="0">54,00 zl</text>
  <text x="278.0" y="1446.0" fill="#5B676A" font-family="Arial, Helvetica, sans-serif" font-size="19" font-weight="500" text-anchor="start" letter-spacing="0">Zajecia - Dziecko - Rodzic B</text>
  <rect x="278.0" y="1470.0" width="245.0" height="44.0" rx="22.0" fill="#0F766E" opacity="0.12"/>
  <text x="302.0" y="1500.0" fill="#0F766E" font-family="Arial, Helvetica, sans-serif" font-size="19" font-weight="700" text-anchor="start" letter-spacing="0">Rozliczony</text>
  <line x1="202.0" y1="1645.0" x2="878.0" y2="1645.0" stroke="#E7ECE7" stroke-width="3"/>
  <g>
    <rect x="227.0" y="1671.0" width="34.0" height="8.0" rx="4.0" fill="#879194" opacity="0"/>
  <circle cx="244.0" cy="1696.0" r="13" fill="none" stroke="#879194" stroke-width="5"/>
<text x="244.0" y="1739.0" fill="#879194" font-family="Arial, Helvetica, sans-serif" font-size="20" font-weight="500" text-anchor="middle" letter-spacing="0">Start</text>
    <rect x="362.2" y="1671.0" width="34.0" height="8.0" rx="4.0" fill="#0F766E" opacity="0.22"/>
  <circle cx="379.2" cy="1696.0" r="13" fill="none" stroke="#0F766E" stroke-width="5"/>
<text x="379.2" y="1739.0" fill="#0F766E" font-family="Arial, Helvetica, sans-serif" font-size="20" font-weight="600" text-anchor="middle" letter-spacing="0">Koszty</text>
    <rect x="497.4" y="1671.0" width="34.0" height="8.0" rx="4.0" fill="#879194" opacity="0"/>
  <circle cx="514.4" cy="1696.0" r="13" fill="none" stroke="#879194" stroke-width="5"/>
<text x="514.4" y="1739.0" fill="#879194" font-family="Arial, Helvetica, sans-serif" font-size="20" font-weight="500" text-anchor="middle" letter-spacing="0">Dodaj</text>
    <rect x="632.6" y="1671.0" width="34.0" height="8.0" rx="4.0" fill="#879194" opacity="0"/>
  <circle cx="649.6" cy="1696.0" r="13" fill="none" stroke="#879194" stroke-width="5"/>
<text x="649.6" y="1739.0" fill="#879194" font-family="Arial, Helvetica, sans-serif" font-size="20" font-weight="500" text-anchor="middle" letter-spacing="0">Opieka</text>
    <rect x="767.8" y="1671.0" width="34.0" height="8.0" rx="4.0" fill="#879194" opacity="0"/>
  <circle cx="784.8" cy="1696.0" r="13" fill="none" stroke="#879194" stroke-width="5"/>
<text x="784.8" y="1739.0" fill="#879194" font-family="Arial, Helvetica, sans-serif" font-size="20" font-weight="500" text-anchor="middle" letter-spacing="0">Raporty</text>
  </g>
</svg>
